<svg width="108" height="32" viewBox="0 0 108 32" fill="none" xmlns="http://www.w3.org/2000/svg">
<path d="M19.6667 16C19.6667 18.025 18.025 19.6667 16 19.6667C13.975 19.6667 12.3333 18.025 12.3333 16C12.3333 13.975 13.975 12.3333 16 12.3333C18.025 12.3333 19.6667 13.975 19.6667 16Z" fill="black" fill-opacity="0.87"/>
<path d="M28 16C28 22.6274 22.6274 28 16 28C14.7212 28 13.4891 27.8 12.3333 27.4295V21.964C13.3997 22.621 14.6556 23 16 23C19.866 23 23 19.866 23 16C23 12.134 19.866 9 16 9C12.134 9 9 12.134 9 16C9 19.249 9.00269 22.4987 9 25.7479C5.97186 23.5695 4 20.0151 4 16C4 9.37258 9.37258 4 16 4C22.6274 4 28 9.37258 28 16Z" fill="black" fill-opacity="0.87"/>
<path d="M37.5647 21.181C35.926 21.181 34.458 20.481 33.4339 19.381V25.1143C33.4339 25.6143 33.0925 25.8476 32.7169 25.8476C32.3755 25.8476 32 25.6143 32 25.1143V15.7476C32 12.781 34.4922 10.3476 37.5306 10.3476C40.6031 10.3476 43.0953 12.781 43.0953 15.7476C43.0953 18.7143 40.6373 21.181 37.5647 21.181ZM37.5647 11.7143C35.3115 11.7143 33.4339 13.5476 33.4339 15.7476C33.4339 17.981 35.2774 19.781 37.5647 19.781C39.8521 19.781 41.6956 17.981 41.6956 15.7476C41.6956 13.5476 39.8521 11.7143 37.5647 11.7143Z" fill="black" fill-opacity="0.87"/>
<path d="M45.5533 8.88096C44.9388 8.88096 44.4609 8.38096 44.4609 7.81429C44.4609 7.21429 44.9388 6.74763 45.5533 6.74763C46.1679 6.74763 46.6458 7.24763 46.6458 7.81429C46.6458 8.38096 46.1679 8.88096 45.5533 8.88096ZM46.2703 20.481C46.2703 20.981 45.9289 21.2143 45.5533 21.2143C45.212 21.2143 44.8364 20.981 44.8364 20.481V11.0143C44.8364 10.5143 45.1778 10.281 45.5533 10.281C45.8947 10.281 46.2703 10.5143 46.2703 11.0143V20.481Z" fill="black" fill-opacity="0.87"/>
<path d="M51.9716 21.181H48.7283C48.2162 21.181 47.9772 20.8476 47.9772 20.481C47.9772 20.1476 48.2162 19.8143 48.7283 19.8143H51.9716C52.9616 19.8143 53.8834 19.1476 53.8834 18.1143C53.8834 17.5143 53.5761 16.9476 52.9957 16.7143L49.8549 15.481C48.7966 15.0476 48.1138 14.1476 48.1138 13.0143C48.1138 11.4476 49.5818 10.381 51.1181 10.381H53.9858C54.4979 10.381 54.7368 10.7143 54.7368 11.0476C54.7368 11.381 54.4979 11.7476 53.9858 11.7476H51.1181C50.367 11.7476 49.5477 12.2143 49.5477 13.0143C49.5477 13.581 49.8891 13.981 50.4011 14.2143L53.542 15.4476C54.6344 15.881 55.2831 16.981 55.2831 18.1143C55.3172 19.9143 53.7809 21.181 51.9716 21.181Z" fill="black" fill-opacity="0.87"/>
<path d="M66.4467 19.5143C65.9346 20.081 65.2859 20.5143 64.569 20.8143C63.8862 21.1143 63.101 21.2476 62.3158 21.2476C59.2091 21.2476 56.6828 18.781 56.6828 15.7476C56.6828 12.7143 59.2432 10.2476 62.3158 10.2476C63.101 10.2476 63.8862 10.4143 64.569 10.7143C65.2859 11.0143 65.9346 11.481 66.4467 12.0143C66.6174 12.181 66.6856 12.3476 66.6856 12.5143C66.6856 12.9143 66.3442 13.2143 65.9687 13.2143C65.798 13.2143 65.5932 13.1476 65.4225 12.9476C65.0128 12.5476 64.5349 12.181 63.9886 11.981C63.4765 11.7476 62.8962 11.6476 62.2817 11.6476C59.9602 11.6476 58.0484 13.5143 58.0484 15.781C58.0484 18.0476 59.9602 19.9143 62.2817 19.9143C62.8962 19.9143 63.4424 19.781 63.9886 19.581C64.5349 19.3476 65.0128 19.0143 65.4225 18.6143C65.5932 18.4143 65.798 18.3476 65.9687 18.3476C66.3442 18.3476 66.6856 18.6476 66.6856 19.0476C66.6856 19.1476 66.6174 19.3143 66.4467 19.5143Z" fill="black" fill-opacity="0.87"/>
<path d="M79.1124 20.4476C79.1124 20.9476 78.771 21.181 78.3955 21.181C78.0541 21.181 77.6785 20.9476 77.6785 20.4476V19.381C76.6543 20.481 75.1864 21.181 73.5477 21.181C70.5093 21.181 68.0171 18.7476 68.0171 15.781C68.0171 12.8143 70.5093 10.381 73.5477 10.381C76.6202 10.381 79.1124 12.8143 79.1124 15.781V20.4476ZM73.5477 11.7143C71.2945 11.7143 69.4168 13.5476 69.4168 15.7476C69.4168 17.981 71.2945 19.781 73.5477 19.781C75.835 19.781 77.6785 17.981 77.6785 15.7476C77.6785 13.5476 75.835 11.7143 73.5477 11.7143Z" fill="black" fill-opacity="0.87"/>
<path d="M91.5391 15.7476C91.5391 18.7143 89.047 21.1476 85.9744 21.1476C82.936 21.1476 80.4438 18.7143 80.4438 15.7476C80.4438 12.781 82.936 10.3476 85.9744 10.3476C87.6131 10.3476 89.0811 11.0476 90.1053 12.1476V6.44763C90.1053 5.94763 90.4467 5.71429 90.8222 5.71429C91.1636 5.71429 91.5391 5.94763 91.5391 6.44763V15.7476ZM86.0085 11.7143C83.7553 11.7143 81.8777 13.5476 81.8777 15.7476C81.8777 17.981 83.7553 19.781 86.0085 19.781C88.2959 19.781 90.1394 17.981 90.1394 15.7476C90.1394 13.5476 88.2617 11.7143 86.0085 11.7143Z" fill="black" fill-opacity="0.87"/>
<path d="M104 20.4476C104 20.9476 103.659 21.181 103.283 21.181C102.942 21.181 102.566 20.9476 102.566 20.4476V19.381C101.542 20.481 100.074 21.181 98.4353 21.181C95.3627 21.181 92.9047 18.7476 92.9047 15.7476C92.9047 12.7476 95.3969 10.3476 98.4353 10.3476C101.508 10.3476 104 12.781 104 15.7476V20.4476ZM98.4353 11.7143C96.1821 11.7143 94.3044 13.5476 94.3044 15.7476C94.3044 17.981 96.1821 19.781 98.4353 19.781C100.723 19.781 102.566 17.981 102.566 15.7476C102.566 13.5476 100.723 11.7143 98.4353 11.7143Z" fill="black" fill-opacity="0.87"/>
</svg>
